<?xml version="1.0" encoding="UTF-8"?>
<!-- Creator: jo -->
<!-- Created: 2023-09-25 11:47:40 -->
<!-- Software: JLODA2 https://github.com/husonlab/jloda2 -->
<svg xmlns="http://www.w3.org/2000/svg" width="831.2" height="638.8" viewBox="-387.9 -446.6 831.2 638.8">
<line x1="179.22" y1="143.95" x2="210.05" y2="181.56"  stroke="#B2B2B2" fill="none" stroke-width="5.78"/>
<line x1="179.22" y1="143.95" x2="135.18" y2="109.01"  stroke="#B2B2B2" fill="none" stroke-width="15.09"/>
<line x1="135.18" y1="109.01" x2="77.73" y2="50.45"  stroke="#B2B2B2" fill="none" stroke-width="15.09"/>
<line x1="77.73" y1="50.45" x2="44.48" y2="86.68"  stroke="#B2B2B2" fill="none" stroke-width="14.25"/>
<line x1="44.48" y1="86.68" x2="-0.47" y2="81.89"  stroke="#B2B2B2" fill="none" stroke-width="14.25"/>
<line x1="-0.47" y1="81.89" x2="-28.41" y2="45.53"  stroke="#B2B2B2" fill="none" stroke-width="14.25"/>
<line x1="-28.41" y1="45.53" x2="-75.50" y2="44.06"  stroke="#B2B2B2" fill="none" stroke-width="14.20"/>
<line x1="-75.50" y1="44.06" x2="-144.51" y2="42.83"  stroke="#B2B2B2" fill="none" stroke-width="14.19"/>
<line x1="77.73" y1="50.45" x2="45.32" y2="-16.58"  stroke="#B2B2B2" fill="none" stroke-width="10.79"/>
<line x1="45.32" y1="-16.58" x2="-15.04" y2="-42.50"  stroke="#B2B2B2" fill="none" stroke-width="4.06"/>
<line x1="-15.04" y1="-42.50" x2="-74.23" y2="-70.78"  stroke="#B2B2B2" fill="none" stroke-width="3.76"/>
<line x1="-74.23" y1="-70.78" x2="-111.85" y2="-112.80"  stroke="#B2B2B2" fill="none" stroke-width="3.72"/>
<line x1="-111.85" y1="-112.80" x2="-142.09" y2="-159.19"  stroke="#B2B2B2" fill="none" stroke-width="3.57"/>
<line x1="-142.09" y1="-159.19" x2="-167.47" y2="-207.74"  stroke="#B2B2B2" fill="none" stroke-width="3.53"/>
<line x1="45.32" y1="-16.58" x2="76.90" y2="-75.11"  stroke="#B2B2B2" fill="none" stroke-width="10.75"/>
<line x1="76.90" y1="-75.11" x2="105.11" y2="-113.90"  stroke="#B2B2B2" fill="none" stroke-width="3.97"/>
<line x1="76.90" y1="-75.11" x2="127.93" y2="-57.04"  stroke="#B2B2B2" fill="none" stroke-width="3.33"/>
<line x1="76.90" y1="-75.11" x2="53.07" y2="-129.47"  stroke="#B2B2B2" fill="none" stroke-width="10.28"/>
<line x1="53.07" y1="-129.47" x2="27.38" y2="-185.23"  stroke="#B2B2B2" fill="none" stroke-width="10.27"/>
<line x1="27.38" y1="-185.23" x2="-13.28" y2="-153.95"  stroke="#B2B2B2" fill="none" stroke-width="4.58"/>
<line x1="-13.28" y1="-153.95" x2="-54.18" y2="-145.73"  stroke="#B2B2B2" fill="none" stroke-width="3.65"/>
<line x1="27.38" y1="-185.23" x2="-96.96" y2="-222.96"  stroke="#B2B2B2" fill="none" stroke-width="6.31"/>
<line x1="-96.96" y1="-222.96" x2="-181.52" y2="-286.96"  stroke="#B2B2B2" fill="none" stroke-width="6.27"/>
<line x1="-181.52" y1="-286.96" x2="-275.09" y2="-356.81"  stroke="#B2B2B2" fill="none" stroke-width="6.11"/>
<line x1="-275.09" y1="-356.81" x2="-330.55" y2="-340.08"  stroke="#B2B2B2" fill="none" stroke-width="3.56"/>
<line x1="-275.09" y1="-356.81" x2="-322.36" y2="-395.38"  stroke="#B2B2B2" fill="none" stroke-width="3.93"/>
<line x1="-275.09" y1="-356.81" x2="-222.52" y2="-371.43"  stroke="#B2B2B2" fill="none" stroke-width="3.38"/>
<line x1="-275.09" y1="-356.81" x2="-279.95" y2="-310.16"  stroke="#B2B2B2" fill="none" stroke-width="3.45"/>
<line x1="-275.09" y1="-356.81" x2="-265.42" y2="-422.83"  stroke="#B2B2B2" fill="none" stroke-width="4.90"/>
<line x1="27.38" y1="-185.23" x2="0.92" y2="-212.70"  stroke="#B2B2B2" fill="none" stroke-width="5.43"/>
<line x1="0.92" y1="-212.70" x2="-29.94" y2="-241.55"  stroke="#B2B2B2" fill="none" stroke-width="5.43"/>
<line x1="-29.94" y1="-241.55" x2="-62.37" y2="-275.01"  stroke="#B2B2B2" fill="none" stroke-width="5.04"/>
<line x1="-62.37" y1="-275.01" x2="-96.25" y2="-300.50"  stroke="#B2B2B2" fill="none" stroke-width="4.83"/>
<line x1="27.38" y1="-185.23" x2="15.45" y2="-322.62"  stroke="#B2B2B2" fill="none" stroke-width="8.12"/>
<line x1="15.45" y1="-322.62" x2="2.96" y2="-390.50"  stroke="#B2B2B2" fill="none" stroke-width="4.92"/>
<line x1="2.96" y1="-390.50" x2="-29.97" y2="-441.51"  stroke="#B2B2B2" fill="none" stroke-width="4.78"/>
<line x1="15.45" y1="-322.62" x2="-41.14" y2="-376.21"  stroke="#B2B2B2" fill="none" stroke-width="3.91"/>
<line x1="15.45" y1="-322.62" x2="-24.98" y2="-324.76"  stroke="#B2B2B2" fill="none" stroke-width="3.45"/>
<line x1="15.45" y1="-322.62" x2="54.23" y2="-386.53"  stroke="#B2B2B2" fill="none" stroke-width="7.51"/>
<line x1="27.38" y1="-185.23" x2="157.24" y2="-168.92"  stroke="#B2B2B2" fill="none" stroke-width="7.19"/>
<line x1="157.24" y1="-168.92" x2="228.50" y2="-185.93"  stroke="#B2B2B2" fill="none" stroke-width="5.54"/>
<line x1="228.50" y1="-185.93" x2="270.48" y2="-233.91"  stroke="#B2B2B2" fill="none" stroke-width="4.73"/>
<line x1="270.48" y1="-233.91" x2="306.32" y2="-265.06"  stroke="#B2B2B2" fill="none" stroke-width="3.91"/>
<line x1="157.24" y1="-168.92" x2="185.02" y2="-205.74"  stroke="#B2B2B2" fill="none" stroke-width="3.61"/>
<line x1="157.24" y1="-168.92" x2="236.46" y2="-124.07"  stroke="#B2B2B2" fill="none" stroke-width="6.15"/>
<line x1="236.46" y1="-124.07" x2="324.64" y2="-96.15"  stroke="#B2B2B2" fill="none" stroke-width="4.97"/>
<line x1="324.64" y1="-96.15" x2="355.63" y2="-54.78"  stroke="#B2B2B2" fill="none" stroke-width="3.63"/>
<line x1="324.64" y1="-96.15" x2="376.42" y2="-114.11"  stroke="#B2B2B2" fill="none" stroke-width="4.24"/>
<line x1="236.46" y1="-124.07" x2="278.22" y2="-151.02"  stroke="#B2B2B2" fill="none" stroke-width="3.33"/>
<line x1="157.24" y1="-168.92" x2="133.21" y2="-224.89"  stroke="#B2B2B2" fill="none" stroke-width="5.40"/>
<line x1="133.21" y1="-224.89" x2="159.77" y2="-271.81"  stroke="#B2B2B2" fill="none" stroke-width="5.01"/>
<line x1="133.21" y1="-224.89" x2="98.44" y2="-261.32"  stroke="#B2B2B2" fill="none" stroke-width="3.32"/>
<line x1="77.73" y1="50.45" x2="126.02" y2="37.14"  stroke="#B2B2B2" fill="none" stroke-width="5.27"/>
<line x1="126.02" y1="37.14" x2="175.32" y2="38.02"  stroke="#B2B2B2" fill="none" stroke-width="5.11"/>
<line x1="175.32" y1="38.02" x2="220.23" y2="25.97"  stroke="#B2B2B2" fill="none" stroke-width="5.09"/>
<line x1="220.23" y1="25.97" x2="266.39" y2="52.10"  stroke="#B2B2B2" fill="none" stroke-width="5.06"/>
<line x1="266.39" y1="52.10" x2="315.27" y2="66.05"  stroke="#B2B2B2" fill="none" stroke-width="5.04"/>
<line x1="315.27" y1="66.05" x2="354.03" y2="100.45"  stroke="#B2B2B2" fill="none" stroke-width="4.29"/>
<circle cx="179.22" cy="143.95" r="15.15"  stroke="none" fill="#B2B2B2" stroke-width="1.00"/>
<circle cx="210.05" cy="181.56" r="5.78"  stroke="none" fill="#B2B2B2" stroke-width="1.00"/>
<circle cx="135.18" cy="109.01" r="15.09"  stroke="none" fill="#B2B2B2" stroke-width="1.00"/>
<circle cx="77.73" cy="50.45" r="15.09"  stroke="none" fill="#B2B2B2" stroke-width="1.00"/>
<circle cx="44.48" cy="86.68" r="14.25"  stroke="none" fill="#B2B2B2" stroke-width="1.00"/>
<circle cx="-0.47" cy="81.89" r="14.25"  stroke="none" fill="#B2B2B2" stroke-width="1.00"/>
<circle cx="-28.41" cy="45.53" r="14.25"  stroke="none" fill="#B2B2B2" stroke-width="1.00"/>
<circle cx="-75.50" cy="44.06" r="14.20"  stroke="none" fill="#B2B2B2" stroke-width="1.00"/>
<circle cx="-144.51" cy="42.83" r="14.19"  stroke="none" fill="#B2B2B2" stroke-width="1.00"/>
<circle cx="45.32" cy="-16.58" r="10.79"  stroke="none" fill="#B2B2B2" stroke-width="1.00"/>
<circle cx="-15.04" cy="-42.50" r="4.06"  stroke="none" fill="#B2B2B2" stroke-width="1.00"/>
<circle cx="-74.23" cy="-70.78" r="3.76"  stroke="none" fill="#B2B2B2" stroke-width="1.00"/>
<circle cx="-111.85" cy="-112.80" r="3.72"  stroke="none" fill="#B2B2B2" stroke-width="1.00"/>
<circle cx="-142.09" cy="-159.19" r="3.57"  stroke="none" fill="#B2B2B2" stroke-width="1.00"/>
<circle cx="-167.47" cy="-207.74" r="3.53"  stroke="none" fill="#B2B2B2" stroke-width="1.00"/>
<circle cx="76.90" cy="-75.11" r="10.75"  stroke="none" fill="#B2B2B2" stroke-width="1.00"/>
<circle cx="105.11" cy="-113.90" r="3.97"  stroke="none" fill="#B2B2B2" stroke-width="1.00"/>
<circle cx="127.93" cy="-57.04" r="3.33"  stroke="none" fill="#B2B2B2" stroke-width="1.00"/>
<circle cx="53.07" cy="-129.47" r="10.28"  stroke="none" fill="#B2B2B2" stroke-width="1.00"/>
<circle cx="27.38" cy="-185.23" r="10.27"  stroke="none" fill="#B2B2B2" stroke-width="1.00"/>
<circle cx="-13.28" cy="-153.95" r="4.58"  stroke="none" fill="#B2B2B2" stroke-width="1.00"/>
<circle cx="-54.18" cy="-145.73" r="3.65"  stroke="none" fill="#B2B2B2" stroke-width="1.00"/>
<circle cx="-96.96" cy="-222.96" r="6.31"  stroke="none" fill="#B2B2B2" stroke-width="1.00"/>
<circle cx="-181.52" cy="-286.96" r="6.27"  stroke="none" fill="#B2B2B2" stroke-width="1.00"/>
<circle cx="-275.09" cy="-356.81" r="6.11"  stroke="none" fill="#B2B2B2" stroke-width="1.00"/>
<circle cx="-330.55" cy="-340.08" r="3.56"  stroke="none" fill="#B2B2B2" stroke-width="1.00"/>
<circle cx="-322.36" cy="-395.38" r="3.93"  stroke="none" fill="#B2B2B2" stroke-width="1.00"/>
<circle cx="-222.52" cy="-371.43" r="3.38"  stroke="none" fill="#B2B2B2" stroke-width="1.00"/>
<circle cx="-279.95" cy="-310.16" r="3.45"  stroke="none" fill="#B2B2B2" stroke-width="1.00"/>
<circle cx="-265.42" cy="-422.83" r="4.90"  stroke="none" fill="#B2B2B2" stroke-width="1.00"/>
<circle cx="0.92" cy="-212.70" r="5.43"  stroke="none" fill="#B2B2B2" stroke-width="1.00"/>
<circle cx="-29.94" cy="-241.55" r="5.43"  stroke="none" fill="#B2B2B2" stroke-width="1.00"/>
<circle cx="-62.37" cy="-275.01" r="5.04"  stroke="none" fill="#B2B2B2" stroke-width="1.00"/>
<circle cx="-96.25" cy="-300.50" r="4.83"  stroke="none" fill="#B2B2B2" stroke-width="1.00"/>
<circle cx="15.45" cy="-322.62" r="8.12"  stroke="none" fill="#B2B2B2" stroke-width="1.00"/>
<circle cx="2.96" cy="-390.50" r="4.92"  stroke="none" fill="#B2B2B2" stroke-width="1.00"/>
<circle cx="-29.97" cy="-441.51" r="4.78"  stroke="none" fill="#B2B2B2" stroke-width="1.00"/>
<circle cx="-41.14" cy="-376.21" r="3.91"  stroke="none" fill="#B2B2B2" stroke-width="1.00"/>
<circle cx="-24.98" cy="-324.76" r="3.45"  stroke="none" fill="#B2B2B2" stroke-width="1.00"/>
<circle cx="54.23" cy="-386.53" r="7.51"  stroke="none" fill="#B2B2B2" stroke-width="1.00"/>
<circle cx="157.24" cy="-168.92" r="7.19"  stroke="none" fill="#B2B2B2" stroke-width="1.00"/>
<circle cx="228.50" cy="-185.93" r="5.54"  stroke="none" fill="#B2B2B2" stroke-width="1.00"/>
<circle cx="270.48" cy="-233.91" r="4.73"  stroke="none" fill="#B2B2B2" stroke-width="1.00"/>
<circle cx="306.32" cy="-265.06" r="3.91"  stroke="none" fill="#B2B2B2" stroke-width="1.00"/>
<circle cx="185.02" cy="-205.74" r="3.61"  stroke="none" fill="#B2B2B2" stroke-width="1.00"/>
<circle cx="236.46" cy="-124.07" r="6.15"  stroke="none" fill="#B2B2B2" stroke-width="1.00"/>
<circle cx="324.64" cy="-96.15" r="4.97"  stroke="none" fill="#B2B2B2" stroke-width="1.00"/>
<circle cx="355.63" cy="-54.78" r="3.63"  stroke="none" fill="#B2B2B2" stroke-width="1.00"/>
<circle cx="376.42" cy="-114.11" r="4.24"  stroke="none" fill="#B2B2B2" stroke-width="1.00"/>
<circle cx="278.22" cy="-151.02" r="3.33"  stroke="none" fill="#B2B2B2" stroke-width="1.00"/>
<circle cx="133.21" cy="-224.89" r="5.40"  stroke="none" fill="#B2B2B2" stroke-width="1.00"/>
<circle cx="159.77" cy="-271.81" r="5.01"  stroke="none" fill="#B2B2B2" stroke-width="1.00"/>
<circle cx="98.44" cy="-261.32" r="3.32"  stroke="none" fill="#B2B2B2" stroke-width="1.00"/>
<circle cx="126.02" cy="37.14" r="5.27"  stroke="none" fill="#B2B2B2" stroke-width="1.00"/>
<circle cx="175.32" cy="38.02" r="5.11"  stroke="none" fill="#B2B2B2" stroke-width="1.00"/>
<circle cx="220.23" cy="25.97" r="5.09"  stroke="none" fill="#B2B2B2" stroke-width="1.00"/>
<circle cx="266.39" cy="52.10" r="5.06"  stroke="none" fill="#B2B2B2" stroke-width="1.00"/>
<circle cx="315.27" cy="66.05" r="5.04"  stroke="none" fill="#B2B2B2" stroke-width="1.00"/>
<circle cx="354.03" cy="100.45" r="4.29"  stroke="none" fill="#B2B2B2" stroke-width="1.00"/>
<text x="154.95" y="151.46" font-family="Helvetica" font-size="20.0" fill="#000000"><![CDATA[NCBI]]></text>
<text x="144.84" y="189.15" font-family="Helvetica" font-size="20.0" fill="#000000"><![CDATA[Not assigned]]></text>
<text x="43.46" y="116.59" font-family="Helvetica" font-size="20.0" fill="#000000"><![CDATA[cellular organisms]]></text>
<text x="36.15" y="57.96" font-family="Helvetica" font-size="20.0" fill="#000000"><![CDATA[Bacteria]]></text>
<text x="-7.56" y="94.27" font-family="Helvetica" font-size="20.0" fill="#000000"><![CDATA[FCB group]]></text>
<text x="-147.20" y="89.48" font-family="Helvetica" font-size="20.0" fill="#000000"><![CDATA[Bacteroidetes/Chlorobi group]]></text>
<text x="-83.89" y="51.53" font-family="Helvetica" font-size="16.0" fill="#000000"><![CDATA[Bacteroidetes]]></text>
<text x="-115.28" y="49.32" font-family="Helvetica" font-size="14.0" fill="#000000"><![CDATA[Bacteroidia]]></text>
<text x="-185.42" y="47.33" font-family="Helvetica" font-size="12.0" fill="#000000"><![CDATA[Bacteroidales]]></text>
<text x="-55.51" y="-8.99" font-family="Helvetica" font-size="20.0" fill="#000000"><![CDATA[Terrabacteria group]]></text>
<text x="-73.68" y="-36.49" font-family="Helvetica" font-size="16.0" fill="#000000"><![CDATA[Actinobacteria]]></text>
<text x="-124.98" y="-65.31" font-family="Helvetica" font-size="14.0" fill="#000000"><![CDATA[Actinomycetia]]></text>
<text x="-162.01" y="-108.30" font-family="Helvetica" font-size="12.0" fill="#000000"><![CDATA[Bifidobacteriales]]></text>
<text x="-188.79" y="-155.44" font-family="Helvetica" font-size="10.0" fill="#000000"><![CDATA[Bifidobacteriaceae]]></text>
<text x="-199.23" y="-204.73" font-family="Helvetica" font-size="8.0" fill="#000000"><![CDATA[Bifidobacterium]]></text>
<text x="35.08" y="-69.10" font-family="Helvetica" font-size="16.0" fill="#000000"><![CDATA[Firmicutes]]></text>
<text x="-121.80" y="-107.71" font-family="Helvetica" font-size="16.0" fill="#000000"><![CDATA[environmental samples <firmicutes,phylum Firmicutes>]]></text>
<text x="107.21" y="-51.78" font-family="Helvetica" font-size="14.0" fill="#000000"><![CDATA[Bacilli]]></text>
<text x="20.06" y="-124.22" font-family="Helvetica" font-size="14.0" fill="#000000"><![CDATA[Clostridia]]></text>
<text x="-13.34" y="-180.73" font-family="Helvetica" font-size="12.0" fill="#000000"><![CDATA[Eubacteriales]]></text>
<text x="-91.35" y="-149.45" font-family="Helvetica" font-size="12.0" fill="#000000"><![CDATA[unclassified Eubacteriales]]></text>
<text x="-114.02" y="-142.16" font-family="Helvetica" font-size="8.0" fill="#000000"><![CDATA[Clostridiales bacterium 59_14]]></text>
<text x="-132.59" y="-219.20" font-family="Helvetica" font-size="10.0" fill="#000000"><![CDATA[Clostridiaceae]]></text>
<text x="-204.56" y="-283.96" font-family="Helvetica" font-size="8.0" fill="#000000"><![CDATA[Clostridium]]></text>
<text x="-387.86" y="-353.42" font-family="Helvetica" font-size="8.0" fill="#000000"><![CDATA[environmental samples <firmicutes,genus Clostridium>]]></text>
<text x="-379.64" y="-336.69" font-family="Helvetica" font-size="8.0" fill="#000000"><![CDATA[Clostridium sp. CAG:127]]></text>
<text x="-371.45" y="-391.99" font-family="Helvetica" font-size="8.0" fill="#000000"><![CDATA[Clostridium sp. CAG:306]]></text>
<text x="-266.52" y="-368.04" font-family="Helvetica" font-size="8.0" fill="#000000"><![CDATA[Clostridium sp. CAG:7]]></text>
<text x="-326.50" y="-306.77" font-family="Helvetica" font-size="8.0" fill="#000000"><![CDATA[Clostridium sp. CAG:91]]></text>
<text x="-318.37" y="-419.45" font-family="Helvetica" font-size="8.0" fill="#000000"><![CDATA[uncultured Clostridium sp.]]></text>
<text x="-37.90" y="-208.94" font-family="Helvetica" font-size="10.0" fill="#000000"><![CDATA[Eubacteriaceae]]></text>
<text x="-55.41" y="-238.54" font-family="Helvetica" font-size="8.0" fill="#000000"><![CDATA[Eubacterium]]></text>
<text x="-177.77" y="-271.63" font-family="Helvetica" font-size="8.0" fill="#000000"><![CDATA[environmental samples <firmicutes,genus Eubacterium>]]></text>
<text x="-145.22" y="-297.12" font-family="Helvetica" font-size="8.0" fill="#000000"><![CDATA[Eubacterium sp. CAG:38]]></text>
<text x="-26.80" y="-318.55" font-family="Helvetica" font-size="10.0" fill="#000000"><![CDATA[Lachnospiraceae]]></text>
<text x="-70.41" y="-386.42" font-family="Helvetica" font-size="10.0" fill="#000000"><![CDATA[unclassified Lachnospiraceae]]></text>
<text x="-73.73" y="-438.50" font-family="Helvetica" font-size="8.0" fill="#000000"><![CDATA[[Eubacterium] rectale]]></text>
<text x="-55.11" y="-373.21" font-family="Helvetica" font-size="8.0" fill="#000000"><![CDATA[Blautia]]></text>
<text x="-73.62" y="-321.37" font-family="Helvetica" font-size="8.0" fill="#000000"><![CDATA[[Ruminococcus] torques]]></text>
<text x="34.18" y="-383.52" font-family="Helvetica" font-size="8.0" fill="#000000"><![CDATA[Roseburia]]></text>
<text x="116.38" y="-164.84" font-family="Helvetica" font-size="10.0" fill="#000000"><![CDATA[Oscillospiraceae]]></text>
<text x="194.01" y="-182.92" font-family="Helvetica" font-size="8.0" fill="#000000"><![CDATA[Faecalibacterium]]></text>
<text x="213.93" y="-230.53" font-family="Helvetica" font-size="8.0" fill="#000000"><![CDATA[Faecalibacterium prausnitzii]]></text>
<text x="239.73" y="-261.68" font-family="Helvetica" font-size="8.0" fill="#000000"><![CDATA[Faecalibacterium prausnitzii L2-6]]></text>
<text x="160.08" y="-202.74" font-family="Helvetica" font-size="8.0" fill="#000000"><![CDATA[Oscillibacter]]></text>
<text x="207.49" y="-121.06" font-family="Helvetica" font-size="8.0" fill="#000000"><![CDATA[Ruminococcus]]></text>
<text x="205.74" y="-92.76" font-family="Helvetica" font-size="8.0" fill="#000000"><![CDATA[environmental samples <firmicutes,genus Ruminococcus>]]></text>
<text x="300.61" y="-51.39" font-family="Helvetica" font-size="8.0" fill="#000000"><![CDATA[Ruminococcus sp. CAG:108]]></text>
<text x="317.35" y="-110.73" font-family="Helvetica" font-size="8.0" fill="#000000"><![CDATA[uncultured Ruminococcus sp.]]></text>
<text x="193.34" y="-147.45" font-family="Helvetica" font-size="8.0" fill="#000000"><![CDATA[Ruminococcus sp. CAG:108-related_41_35]]></text>
<text x="99.02" y="-221.51" font-family="Helvetica" font-size="8.0" fill="#000000"><![CDATA[Subdoligranulum]]></text>
<text x="104.96" y="-268.23" font-family="Helvetica" font-size="8.0" fill="#000000"><![CDATA[Subdoligranulum sp. 60_17]]></text>
<text x="45.73" y="-257.93" font-family="Helvetica" font-size="8.0" fill="#000000"><![CDATA[Subdoligranulum variabile]]></text>
<text x="67.20" y="43.15" font-family="Helvetica" font-size="16.0" fill="#000000"><![CDATA[Proteobacteria]]></text>
<text x="107.49" y="43.50" font-family="Helvetica" font-size="14.0" fill="#000000"><![CDATA[Betaproteobacteria]]></text>
<text x="173.43" y="30.48" font-family="Helvetica" font-size="12.0" fill="#000000"><![CDATA[Burkholderiales]]></text>
<text x="230.11" y="55.86" font-family="Helvetica" font-size="10.0" fill="#000000"><![CDATA[Sutterellaceae]]></text>
<text x="295.70" y="69.06" font-family="Helvetica" font-size="8.0" fill="#000000"><![CDATA[Sutterella]]></text>
<text x="301.10" y="103.46" font-family="Helvetica" font-size="8.0" fill="#000000"><![CDATA[Sutterella wadsworthensis]]></text>
</svg>
